<svg width="89" height="30" viewBox="0 0 89 30" fill="none" xmlns="http://www.w3.org/2000/svg">
<path fill-rule="evenodd" clip-rule="evenodd" d="M76.9543 27.8687C76.8033 27.7431 76.7793 27.5231 76.8998 27.3689L78.6069 25.1839C78.6679 25.1059 78.7583 25.0554 78.8576 25.044C78.9569 25.0325 79.0568 25.061 79.1344 25.123C79.8751 25.7146 80.544 26.1299 81.1417 26.3805C81.7347 26.6176 82.3678 26.7371 83.0442 26.7371C83.4959 26.7371 83.8626 26.6924 84.1517 26.6112C84.4412 26.5299 84.6319 26.4221 84.7519 26.306C84.8656 26.185 84.9144 26.0586 84.9144 25.9126C84.9144 25.6821 84.8335 25.5333 84.6757 25.4205C84.4874 25.2859 84.1145 25.151 83.4979 25.048L83.4959 25.0477L80.757 24.5757C79.6911 24.3908 78.8329 23.9831 78.2191 23.3274C77.6024 22.6685 77.3033 21.8364 77.3033 20.8609C77.3033 20.005 77.522 19.2484 77.974 18.6081L77.9769 18.604C78.4384 17.969 79.0855 17.4924 79.8994 17.1673L79.9013 17.1666C80.7257 16.8424 81.6875 16.6861 82.7775 16.6861C83.7451 16.6861 84.7155 16.8507 85.6872 17.1769C86.6608 17.4921 87.5131 17.9372 88.2389 18.5153C88.3913 18.6367 88.421 18.8537 88.3068 19.0103L86.6886 21.2303C86.6301 21.3105 86.541 21.364 86.4416 21.3784C86.3423 21.3929 86.2413 21.3671 86.1617 21.3069C84.9281 20.3751 83.7309 19.9315 82.5641 19.9315C82.1761 19.9315 81.8528 19.9753 81.5883 20.0553C81.5853 20.0562 81.5822 20.057 81.5792 20.0579C81.3256 20.1277 81.1568 20.2245 81.0477 20.3318C80.9657 20.4125 80.9251 20.5052 80.9251 20.6336C80.9251 20.8325 80.9911 20.9505 81.1087 21.0371C81.2799 21.1534 81.5937 21.269 82.094 21.3586C82.095 21.3588 82.0959 21.3589 82.0969 21.3591L84.6671 21.7772L84.6683 21.7774C85.9105 21.971 86.8985 22.3829 87.5879 23.0467C88.2958 23.7169 88.6429 24.5841 88.6429 25.6154C88.6429 26.5096 88.4046 27.3021 87.9163 27.9766L87.9143 27.9793C87.4281 28.6381 86.7392 29.1366 85.8688 29.4838C84.9961 29.8319 83.9744 30 82.813 30C81.7592 30 80.7195 29.8109 79.6959 29.4351C78.6735 29.0598 77.7588 28.5378 76.9543 27.8687ZM82.0306 21.7174C81.5089 21.6242 81.1296 21.496 80.8925 21.3328C80.6672 21.1697 80.5546 20.9366 80.5546 20.6336C80.5546 20.4122 80.6316 20.2258 80.7858 20.0743C80.9517 19.9111 81.1829 19.7888 81.4793 19.7072C81.7875 19.614 82.1491 19.5674 82.5641 19.5674C83.7341 19.5674 84.9093 19.9788 86.0894 20.8018C86.1887 20.871 86.288 20.9431 86.3874 21.0182L88.0057 18.7982C87.3181 18.2505 86.506 17.8252 85.5694 17.5222C84.6328 17.2076 83.7022 17.0502 82.7775 17.0502C81.7223 17.0502 80.8095 17.2017 80.0389 17.5047C79.2801 17.8077 78.6933 18.2447 78.2784 18.8157C77.8753 19.3867 77.6737 20.0685 77.6737 20.8609C77.6737 21.7582 77.9464 22.4982 78.4918 23.0808C79.0371 23.6635 79.8136 24.0422 80.8213 24.217L83.5599 24.689C84.1882 24.7939 84.6328 24.9395 84.8936 25.126C85.1545 25.3125 85.2849 25.5746 85.2849 25.9126C85.2849 26.1573 85.196 26.3729 85.0181 26.5594C84.8403 26.7342 84.5854 26.8682 84.2535 26.9614C83.9215 27.0546 83.5184 27.1012 83.0442 27.1012C82.321 27.1012 81.6394 26.973 80.9992 26.7167C80.4415 26.4832 79.8389 26.1215 79.1913 25.6317C79.0955 25.5591 78.9986 25.4838 78.9008 25.4057L77.1936 27.5907C77.9642 28.2316 78.8415 28.7327 79.8255 29.094C80.8095 29.4552 81.8053 29.6358 82.813 29.6358C83.9393 29.6358 84.9114 29.4727 85.7294 29.1464C86.5475 28.8201 87.1758 28.3598 87.6144 27.7655C88.0531 27.1595 88.2724 26.4428 88.2724 25.6154C88.2724 24.6715 87.9582 23.9024 87.3299 23.3081C86.7134 22.7138 85.8065 22.3234 84.6091 22.1369L82.0306 21.7174Z" fill="#FF2B51"/>
<path fill-rule="evenodd" clip-rule="evenodd" d="M60.1447 29.8252C59.9401 29.8252 59.7742 29.6622 59.7742 29.461V17.225C59.7742 17.0239 59.9401 16.8609 60.1447 16.8609H63.2034C63.408 16.8609 63.5739 17.0239 63.5739 17.225V26.4399H69.7653C69.9699 26.4399 70.1358 26.6029 70.1358 26.8041V29.461C70.1358 29.6622 69.9699 29.8252 69.7653 29.8252H60.1447ZM63.2034 26.8041V17.225H60.1447V29.461H69.7653V26.8041H63.2034Z" fill="#FF2B51"/>
<path fill-rule="evenodd" clip-rule="evenodd" d="M38.5342 29.6639C38.4654 29.5631 38.4523 29.4352 38.4991 29.3229L43.6028 17.0869C43.6599 16.9502 43.7953 16.8609 43.9456 16.8609H47.4489C47.5999 16.8609 47.7358 16.9509 47.7924 17.0885L52.8249 29.3245C52.8711 29.4368 52.8575 29.5642 52.7886 29.6646C52.7198 29.765 52.6047 29.8252 52.4815 29.8252H49.1738C49.0198 29.8252 48.8819 29.7316 48.8274 29.59L47.7799 26.8711H43.4354L42.3709 29.5918C42.3158 29.7324 42.1784 29.8252 42.0251 29.8252H38.8419C38.7184 29.8252 38.603 29.7647 38.5342 29.6639ZM43.181 26.5069H48.0357L49.1738 29.461H52.4815L47.4489 17.225H43.9456L38.8419 29.461H42.0251L43.181 26.5069ZM47.1288 24.1122L45.635 20.1966L44.1057 24.1122H47.1288ZM44.6448 23.748H46.5942L45.6309 21.2231L44.6448 23.748Z" fill="#FF2B51"/>
<path fill-rule="evenodd" clip-rule="evenodd" d="M21.3791 29.8252C21.1745 29.8252 21.0087 29.6622 21.0087 29.461V17.225C21.0087 17.0239 21.1745 16.8609 21.3791 16.8609H31.1954C31.4 16.8609 31.5658 17.0239 31.5658 17.225V19.8296C31.5658 20.0307 31.4 20.1937 31.1954 20.1937H24.8083V21.6679H28.9014C29.106 21.6679 29.2718 21.8309 29.2718 22.032V24.5491C29.2718 24.7503 29.106 24.9133 28.9014 24.9133H24.8083V26.4923H31.2665C31.4711 26.4923 31.637 26.6554 31.637 26.8565V29.461C31.637 29.6622 31.4711 29.8252 31.2665 29.8252H21.3791ZM24.4378 26.8565V24.5491H28.9014V22.032H24.4378V19.8296H31.1954V17.225H21.3791V29.461H31.2665V26.8565H24.4378Z" fill="#FF2B51"/>
<path fill-rule="evenodd" clip-rule="evenodd" d="M7.55944 26.2057C7.94254 26.0488 8.27515 25.8305 8.56029 25.5502C8.84672 25.2687 9.06874 24.9466 9.2279 24.5821C9.38547 24.2098 9.46541 23.8095 9.46541 23.378C9.46541 22.9329 9.38477 22.5264 9.22716 22.1546L9.22579 22.1514C9.06573 21.7633 8.84372 21.4319 8.56029 21.1533C8.27515 20.8731 7.94254 20.6547 7.55944 20.4978C7.55556 20.4962 7.55171 20.4946 7.5479 20.4929C7.18442 20.3295 6.78687 20.2462 6.35042 20.2462H4.80033V26.4399H6.35042C6.79021 26.4399 7.19062 26.3611 7.55599 26.2071L7.55944 26.2057ZM4.42985 26.8041V19.882H6.35042C6.83649 19.882 7.28699 19.9752 7.70193 20.1617C8.12872 20.3365 8.50216 20.5812 8.82226 20.8958C9.14235 21.2105 9.39131 21.5834 9.56914 22.0146C9.74697 22.4341 9.83589 22.8886 9.83589 23.378C9.83589 23.8558 9.74697 24.3044 9.56914 24.7239C9.39131 25.1318 9.14235 25.4931 8.82226 25.8077C8.50216 26.1223 8.12872 26.3671 7.70193 26.5419C7.28699 26.7167 6.83649 26.8041 6.35042 26.8041H4.42985ZM1.37118 29.8252C1.16657 29.8252 1.0007 29.6622 1.0007 29.461V17.225C1.0007 17.0239 1.16657 16.8609 1.37118 16.8609H6.42155C7.3899 16.8609 8.29684 17.0258 9.13856 17.3592C9.97427 17.6903 10.7079 18.1517 11.3359 18.744C11.9756 19.3361 12.4723 20.0281 12.824 20.8176C13.1901 21.6125 13.3717 22.4674 13.3717 23.378C13.3717 24.2776 13.1898 25.1216 12.8231 25.9054C12.4709 26.6836 11.9739 27.3693 11.3346 27.9607C10.7066 28.541 9.97326 28.9962 9.13856 29.3268C8.29684 29.6603 7.3899 29.8252 6.42155 29.8252H1.37118ZM11.0807 19.008C10.4879 18.4486 9.79439 18.0116 9.00009 17.697C8.20578 17.3824 7.34627 17.225 6.42155 17.225H1.37118V29.461H6.42155C7.34627 29.461 8.20578 29.3037 9.00009 28.9891C9.79439 28.6744 10.4879 28.2433 11.0807 27.6955C11.6853 27.1362 12.1536 26.4894 12.4856 25.7553C12.8294 25.0211 13.0013 24.2287 13.0013 23.378C13.0013 22.5156 12.8294 21.7116 12.4856 20.9658C12.1536 20.2199 11.6853 19.5674 11.0807 19.008Z" fill="#FF2B51"/>
<path d="M0.357178 11.9811L2.95164 0H6.57345L8.29729 5.6311L12.4763 0H16.2548L13.6603 11.9811H10.9614L12.7201 3.83394L7.25254 11.1253L4.88443 3.7826L3.12577 11.9811H0.357178Z" fill="#FF2B51"/>
<path d="M19.4227 11.9811L20.3804 7.49673L17.072 0H20.1888L22.2957 4.91224L26.4573 0H29.905L23.3231 7.53096L22.3654 11.9811H19.4227Z" fill="#FF2B51"/>
<path d="M31.5263 11.9811L34.1207 0H38.3172C39.1297 0 39.8785 0.136927 40.5634 0.41078C41.2599 0.673222 41.8635 1.04977 42.3743 1.54042C42.8967 2.01967 43.2971 2.58449 43.5757 3.23489C43.866 3.88529 44.0111 4.59275 44.0111 5.35725C44.0111 6.25869 43.8253 7.10877 43.4539 7.90751C43.0824 8.70625 42.5716 9.4137 41.9216 10.0299C41.2831 10.6346 40.5402 11.1139 39.6928 11.4676C38.8569 11.8099 37.9631 11.9811 37.0112 11.9811H31.5263ZM35.0088 9.37947H37.2202C37.7425 9.37947 38.2243 9.28248 38.6654 9.0885C39.1181 8.89452 39.5128 8.62637 39.8495 8.28406C40.1977 7.93033 40.4647 7.52526 40.6504 7.06883C40.8478 6.61241 40.9465 6.12176 40.9465 5.59687C40.9465 5.01494 40.813 4.50146 40.546 4.05645C40.2906 3.60003 39.9365 3.2463 39.4838 2.99527C39.0427 2.73283 38.5319 2.6016 37.9515 2.6016H36.4888L35.0088 9.37947Z" fill="#FF2B51"/>
<path d="M50.044 12.1351C48.8483 12.1351 47.85 11.8898 47.049 11.3991C46.2596 10.8971 45.7082 10.201 45.3948 9.31101C45.093 8.40957 45.0698 7.37121 45.3252 6.19593L46.6659 0H49.6086L48.1982 6.50401C48.0705 7.09736 48.0705 7.61654 48.1982 8.06155C48.3259 8.49515 48.5639 8.83176 48.9121 9.07139C49.272 9.31101 49.7189 9.43082 50.2529 9.43082C50.9494 9.43082 51.5588 9.20831 52.0812 8.7633C52.6036 8.31829 52.9402 7.73635 53.0911 7.01749L54.606 0H57.5313L55.9468 7.30846C55.7262 8.31258 55.3432 9.17408 54.7976 9.89294C54.252 10.6118 53.5729 11.1652 52.7603 11.5532C51.9593 11.9411 51.0539 12.1351 50.044 12.1351Z" fill="#FF2B51"/>
<path d="M56.7438 11.9811L59.3383 0H64.8755C66.0015 0 66.9011 0.268148 67.5744 0.804443C68.2593 1.34074 68.6018 2.0539 68.6018 2.94392C68.6018 3.56009 68.4334 4.13062 68.0968 4.6555C67.7602 5.18039 67.3132 5.60828 66.756 5.93919C67.1623 6.19022 67.4758 6.50401 67.6963 6.88056C67.9285 7.25711 68.0446 7.67359 68.0446 8.13002C68.0446 8.86029 67.8356 9.5164 67.4177 10.0983C67.0114 10.6803 66.4542 11.1424 65.7461 11.4847C65.038 11.8156 64.237 11.9811 63.3432 11.9811H56.7438ZM61.2363 4.77531H64.0223C64.475 4.77531 64.8523 4.6498 65.1541 4.39877C65.4559 4.13632 65.6068 3.81112 65.6068 3.42316C65.6068 3.10367 65.4965 2.85834 65.276 2.68718C65.0554 2.50462 64.7536 2.41333 64.3705 2.41333H61.7412L61.2363 4.77531ZM60.1915 9.56774H63.4128C63.7379 9.56774 64.0281 9.50499 64.2835 9.37947C64.5388 9.25395 64.7362 9.0828 64.8755 8.866C65.0264 8.63778 65.1018 8.38675 65.1018 8.1129C65.1018 7.78199 64.98 7.51955 64.7362 7.32557C64.504 7.13159 64.179 7.0346 63.7611 7.0346H60.7487L60.1915 9.56774Z" fill="#FF2B51"/>
<path d="M67.4985 11.9811L74.9337 0H78.2943L80.5927 11.9811H77.563L77.0754 9.0885H72.4088L70.7024 11.9811H67.4985ZM73.7844 6.74363H76.6923L76.0481 2.90969L73.7844 6.74363Z" fill="#FF2B51"/>
<path d="M81.4683 11.9811L84.0627 0H86.988L84.3936 11.9811H81.4683Z" fill="#FF2B51"/>
</svg>
