<svg width="25" height="24" viewBox="0 0 25 24" fill="none" xmlns="http://www.w3.org/2000/svg">
<g clip-path="url(#clip0_1_258)">
<path d="M12.6428 5.9C13.8028 5.9 14.7428 6.84 14.7428 8C14.7428 9.16 13.8028 10.1 12.6428 10.1C11.4828 10.1 10.5428 9.16 10.5428 8C10.5428 6.84 11.4828 5.9 12.6428 5.9ZM12.6428 14.9C15.6128 14.9 18.7428 16.36 18.7428 17V18.1H6.54282V17C6.54282 16.36 9.67282 14.9 12.6428 14.9ZM12.6428 4C10.4328 4 8.64282 5.79 8.64282 8C8.64282 10.21 10.4328 12 12.6428 12C14.8528 12 16.6428 10.21 16.6428 8C16.6428 5.79 14.8528 4 12.6428 4ZM12.6428 13C9.97282 13 4.64282 14.34 4.64282 17V20H20.6428V17C20.6428 14.34 15.3128 13 12.6428 13Z" fill="#2B2D42"/>
</g>
<defs>
<clipPath id="clip0_1_258">
<rect width="24" height="24" fill="white" transform="translate(0.642822)"/>
</clipPath>
</defs>
</svg>
